HIERARCHY
ROOT Hips
{
	OFFSET 0.000000 0.000000 0.000000
	CHANNELS 6 Xposition Yposition Zposition Xrotation Yrotation Zrotation
	JOINT LeftUpLeg_virtual
	{
		OFFSET 0.000000 0.000000 0.000000
		CHANNELS 3 Xrotation Yrotation Zrotation
		JOINT LeftUpLeg
		{
			OFFSET 11.394100 -6.187798 -0.413800
			CHANNELS 3 Xrotation Yrotation Zrotation
			JOINT LeftLeg
			{
				OFFSET 0.430247 -32.302673 3.732800
				CHANNELS 3 Xrotation Yrotation Zrotation
				JOINT LeftFoot
				{
					OFFSET -0.430247 -48.264931 -6.423300
					CHANNELS 3 Xrotation Yrotation Zrotation
					JOINT LeftToeBase
					{
						OFFSET 4.230900 -16.068199 23.438400
						CHANNELS 3 Xrotation Yrotation Zrotation
						JOINT LeftToe_End
						{
							OFFSET 4.510700 0.695400 19.974600
							CHANNELS 3 Xrotation Yrotation Zrotation
							End Site
							{
								OFFSET 0 0 0
							}
						}
					}
				}
			}
		}
	}
	JOINT RightUpLeg_virtual
	{
		OFFSET 0.000000 0.000000 0.000000
		CHANNELS 3 Xrotation Yrotation Zrotation
		JOINT RightUpLeg
		{
			OFFSET -11.333700 -6.187798 -0.413800
			CHANNELS 3 Xrotation Yrotation Zrotation
			JOINT RightLeg
			{
				OFFSET -0.430392 -32.302628 3.733000
				CHANNELS 3 Xrotation Yrotation Zrotation
				JOINT RightFoot
				{
					OFFSET 0.430392 -48.264973 -6.423500
					CHANNELS 3 Xrotation Yrotation Zrotation
					JOINT RightToeBase
					{
						OFFSET -4.230900 -16.068199 23.438400
						CHANNELS 3 Xrotation Yrotation Zrotation
						JOINT RightToe_End
						{
							OFFSET -4.510700 0.695400 19.974600
							CHANNELS 3 Xrotation Yrotation Zrotation
							End Site
							{
								OFFSET 0 0 0
							}
						}
					}
				}
			}
		}
	}
	JOINT Spine_virtual
	{
		OFFSET 0.000000 0.000000 0.000000
		CHANNELS 3 Xrotation Yrotation Zrotation
		JOINT Spine
		{
			OFFSET -0.002400 12.777504 0.315300
			CHANNELS 3 Xrotation Yrotation Zrotation
			JOINT Spine1
			{
				OFFSET -0.002067 5.816869 0.032633
				CHANNELS 3 Xrotation Yrotation Zrotation
				JOINT Spine1_split
				{
					OFFSET -0.002067 5.816869 0.032633
					CHANNELS 3 Xrotation Yrotation Zrotation
					JOINT Spine2
					{
						OFFSET -0.002067 5.816869 0.032633
						CHANNELS 3 Xrotation Yrotation Zrotation
						JOINT Neck_virtual
						{
							OFFSET 0.000000 0.000000 0.000000
							CHANNELS 3 Xrotation Yrotation Zrotation
							JOINT Neck
							{
								OFFSET -0.003700 21.199493 -0.826900
								CHANNELS 3 Xrotation Yrotation Zrotation
								JOINT Head
								{
									OFFSET 0.000000 20.442200 4.834800
									CHANNELS 3 Xrotation Yrotation Zrotation
									JOINT HeadTop_End
									{
										OFFSET 0.000000 34.668396 4.968400
										CHANNELS 3 Xrotation Yrotation Zrotation
										End Site
										{
											OFFSET 0 0 0
										}
									}
								}
							}
						}
						JOINT LeftShoulder_virtual
						{
							OFFSET 0.000000 0.000000 0.000000
							CHANNELS 3 Xrotation Yrotation Zrotation
							JOINT LeftShoulder
							{
								OFFSET 3.288150 8.794197 -1.372250
								CHANNELS 3 Xrotation Yrotation Zrotation
								JOINT LeftShoulder_split
								{
									OFFSET 3.288150 8.794197 -1.372250
									CHANNELS 3 Xrotation Yrotation Zrotation
									JOINT LeftArm
									{
										OFFSET 11.953299 -2.279007 -0.146200
										CHANNELS 3 Xrotation Yrotation Zrotation
										JOINT LeftForeArm
										{
											OFFSET 18.448900 0.000000 0.000000
											CHANNELS 3 Xrotation Yrotation Zrotation
											JOINT LeftHand
											{
												OFFSET 29.527798 0.000000 0.000000
												CHANNELS 3 Xrotation Yrotation Zrotation
												End Site
												{
													OFFSET 0 0 0
												}
											}
										}
									}
								}
							}
						}
						JOINT RightShoulder_virtual
						{
							OFFSET 0.000000 0.000000 0.000000
							CHANNELS 3 Xrotation Yrotation Zrotation
							JOINT RightShoulder
							{
								OFFSET -3.249400 8.794197 -1.372250
								CHANNELS 3 Xrotation Yrotation Zrotation
								JOINT RightShoulder_split
								{
									OFFSET -3.249400 8.794197 -1.372250
									CHANNELS 3 Xrotation Yrotation Zrotation
									JOINT RightArm
									{
										OFFSET -11.953299 -2.279007 -0.146200
										CHANNELS 3 Xrotation Yrotation Zrotation
										JOINT RightForeArm
										{
											OFFSET -18.448900 0.000000 0.000000
											CHANNELS 3 Xrotation Yrotation Zrotation
											JOINT RightHand
											{
												OFFSET -29.527802 0.000000 0.000000
												CHANNELS 3 Xrotation Yrotation Zrotation
												End Site
												{
													OFFSET 0 0 0
												}
											}
										}
									}
								}
							}
						}
					}
				}
			}
		}
	}
}
MOTION
Frames: 4
Frame Time: 0.03333333
-0.276067 58.198540 0.062580 0.000000 0.000000 0.000000 -179.448481 -4.321272 171.388598 -102.208392 -18.222974 7.667448 115.770778 9.412568 3.734320 -10.354793 1.397444 -12.869865 -0.722688 1.253486 0.894669 0.000000 0.000000 0.000000 -179.448481 -4.321272 171.388598 -76.178760 18.980186 -20.838651 106.052498 -3.705705 -1.435943 -11.025077 -4.609615 29.932525 -9.240657 -3.038584 -0.168786 0.000000 0.000000 0.000000 -179.448481 -4.321272 171.388598 4.066066 3.548076 -2.523779 8.251963 6.771407 -4.731506 0.000000 0.000000 0.000000 0.000000 0.000000 0.000000 8.251962 6.771408 -4.731512 -1.987045 28.311179 6.773754 5.084071 36.051828 -22.849327 0.000000 0.000000 0.000000 8.251962 6.771408 -4.731512 1.033483 -15.235097 -11.647779 0.000000 0.000000 0.000000 3.042449 -0.761206 -32.016358 40.133553 -33.388195 -1.908166 0.000000 0.000000 0.000000 8.251962 6.771408 -4.731512 3.185197 -18.297172 12.806534 0.000000 0.000000 0.000000 12.807458 -13.875008 59.330507 29.940787 40.956895 -3.738841 0.000000 0.000000 0.000000 
-0.286586 58.199280 0.047199 0.000000 0.000000 0.000000 -179.488478 -4.327440 171.385688 -102.241546 -18.207261 7.663015 115.773892 9.411108 3.734016 -10.375603 1.397409 -12.858651 -0.721105 1.253441 0.898860 0.000000 0.000000 0.000000 -179.488478 -4.327440 171.385688 -76.193014 18.975060 -20.876734 106.055264 -3.703912 -1.435848 -11.051037 -4.605106 29.898822 -9.245045 -3.038561 -0.169236 0.000000 0.000000 0.000000 -179.488478 -4.327440 171.385688 4.057705 3.543322 -2.522730 8.234953 6.762118 -4.728766 0.000000 0.000000 0.000000 0.000000 0.000000 0.000000 8.234952 6.762116 -4.728764 -1.961547 28.352931 6.666014 5.081371 36.036669 -22.765785 0.000000 0.000000 0.000000 8.234952 6.762116 -4.728764 1.018268 -15.384832 -11.671202 0.000000 0.000000 0.000000 3.130068 -0.613953 -31.998439 40.157059 -33.422434 -1.934996 0.000000 0.000000 0.000000 8.234952 6.762116 -4.728764 3.169449 -18.205173 12.731743 0.000000 0.000000 0.000000 12.862353 -13.921452 59.407660 29.931050 40.882357 -3.744464 0.000000 0.000000 0.000000 
-0.301929 58.199486 0.031570 0.000000 0.000000 0.000000 -179.520321 -4.353928 171.376823 -102.283674 -18.188780 7.656899 115.787607 9.404791 3.731201 -10.389895 1.387781 -12.831442 -0.721884 1.253482 0.896749 0.000000 0.000000 0.000000 -179.520321 -4.353928 171.376823 -76.177134 18.956907 -20.929725 106.052948 -3.685558 -1.442262 -11.081599 -4.608666 29.886558 -9.259022 -3.053260 -0.173073 0.000000 0.000000 0.000000 -179.520321 -4.353928 171.376823 4.050686 3.543741 -2.514131 8.220299 6.763316 -4.710184 0.000000 0.000000 0.000000 0.000000 0.000000 0.000000 8.220297 6.763313 -4.710174 -1.801247 28.372368 6.520776 5.041898 36.023135 -22.741989 0.000000 0.000000 0.000000 8.220297 6.763313 -4.710174 0.975622 -15.461784 -11.770706 0.000000 0.000000 0.000000 3.170430 -0.536183 -31.902229 40.187617 -33.466984 -1.974901 0.000000 0.000000 0.000000 8.220297 6.763313 -4.710174 3.159097 -18.210498 12.673940 0.000000 0.000000 0.000000 12.884378 -13.954245 59.461626 29.974562 40.815862 -3.790381 0.000000 0.000000 0.000000 
-0.321123 58.198189 0.021301 0.000000 0.000000 0.000000 -179.558023 -4.377575 171.357289 -102.340952 -18.166358 7.626909 115.801459 9.413339 3.730940 -10.408086 1.378883 -12.799103 -0.720138 1.253436 0.901393 0.000000 0.000000 0.000000 -179.558023 -4.377575 171.357289 -76.162258 18.949491 -20.945873 106.034295 -3.671773 -1.452210 -11.087314 -4.622067 29.922256 -9.251641 -3.061352 -0.172362 0.000000 0.000000 0.000000 -179.558023 -4.377575 171.357289 4.044053 3.548803 -2.505361 8.206552 6.774013 -4.690941 0.000000 0.000000 0.000000 0.000000 0.000000 0.000000 8.206555 6.774014 -4.690942 -1.458882 28.369580 6.337053 4.912834 36.053488 -22.782484 0.000000 0.000000 0.000000 8.206555 6.774014 -4.690942 0.930203 -15.547233 -11.875384 0.000000 0.000000 0.000000 3.208567 -0.438944 -31.791921 40.215976 -33.561705 -1.999898 0.000000 0.000000 0.000000 8.206555 6.774014 -4.690942 3.154710 -18.236550 12.562901 0.000000 0.000000 0.000000 12.873509 -13.925034 59.585320 29.979531 40.631566 -3.804647 0.000000 0.000000 0.000000 
